<svg width="633" height="261" viewBox="0 0 633 261" fill="none" xmlns="http://www.w3.org/2000/svg">
<path d="M38.224 128.032V132H7.696V86.56H37.648V90.528H12.176V106.912H34.384V110.688H12.176V128.032H38.224ZM73.5195 132H69.1675V113.376C69.1675 109.451 68.5915 106.592 67.4395 104.8C66.2875 102.965 64.4742 102.048 61.9995 102.048C60.2928 102.048 58.6075 102.475 56.9435 103.328C55.2795 104.139 53.8075 105.269 52.5275 106.72C51.2902 108.128 50.3942 109.749 49.8395 111.584V132H45.4875V98.656H49.4555V106.208C50.3515 104.587 51.5248 103.179 52.9755 101.984C54.4262 100.747 56.0688 99.7867 57.9035 99.104C59.7382 98.4213 61.6368 98.08 63.5995 98.08C65.4342 98.08 66.9915 98.4213 68.2715 99.104C69.5515 99.7867 70.5755 100.768 71.3435 102.048C72.1115 103.285 72.6662 104.8 73.0075 106.592C73.3488 108.341 73.5195 110.304 73.5195 112.48V132ZM96.176 132.448C93.9147 132.448 91.824 131.979 89.904 131.04C87.984 130.101 86.32 128.843 84.912 127.264C83.5467 125.643 82.48 123.808 81.712 121.76C80.944 119.712 80.56 117.6 80.56 115.424C80.56 113.077 80.9227 110.88 81.648 108.832C82.416 106.741 83.4827 104.885 84.848 103.264C86.256 101.643 87.8987 100.384 89.776 99.488C91.6533 98.5493 93.744 98.08 96.048 98.08C98.9067 98.08 101.381 98.8053 103.472 100.256C105.605 101.707 107.397 103.499 108.848 105.632V98.656H112.752V132.128C112.752 135.2 112.005 137.781 110.512 139.872C109.061 142.005 107.077 143.605 104.56 144.672C102.085 145.739 99.376 146.272 96.432 146.272C92.6347 146.272 89.5627 145.589 87.216 144.224C84.8693 142.859 82.9493 141.024 81.456 138.72L84.144 136.608C85.4667 138.699 87.216 140.256 89.392 141.28C91.6107 142.304 93.9573 142.816 96.432 142.816C98.608 142.816 100.592 142.411 102.384 141.6C104.219 140.832 105.669 139.659 106.736 138.08C107.845 136.501 108.4 134.517 108.4 132.128V125.536C107.12 127.627 105.371 129.312 103.152 130.592C100.933 131.829 98.608 132.448 96.176 132.448ZM97.392 128.8C98.7147 128.8 99.9733 128.565 101.168 128.096C102.405 127.627 103.536 127.008 104.56 126.24C105.584 125.429 106.437 124.533 107.12 123.552C107.803 122.571 108.229 121.568 108.4 120.544V110.24C107.76 108.619 106.843 107.189 105.648 105.952C104.453 104.672 103.088 103.691 101.552 103.008C100.059 102.283 98.5013 101.92 96.88 101.92C95.0027 101.92 93.3173 102.325 91.824 103.136C90.3733 103.904 89.136 104.949 88.112 106.272C87.1307 107.552 86.3627 109.003 85.808 110.624C85.2533 112.245 84.976 113.867 84.976 115.488C84.976 117.28 85.296 118.987 85.936 120.608C86.576 122.187 87.4507 123.616 88.56 124.896C89.712 126.133 91.0347 127.093 92.528 127.776C94.064 128.459 95.6853 128.8 97.392 128.8ZM122.363 132V98.656H126.715V132H122.363ZM122.363 91.68V85.28H126.715V91.68H122.363ZM164.332 132H159.98V113.376C159.98 109.451 159.404 106.592 158.252 104.8C157.1 102.965 155.287 102.048 152.812 102.048C151.105 102.048 149.42 102.475 147.756 103.328C146.092 104.139 144.62 105.269 143.34 106.72C142.103 108.128 141.207 109.749 140.652 111.584V132H136.3V98.656H140.268V106.208C141.164 104.587 142.337 103.179 143.788 101.984C145.239 100.747 146.881 99.7867 148.716 99.104C150.551 98.4213 152.449 98.08 154.412 98.08C156.247 98.08 157.804 98.4213 159.084 99.104C160.364 99.7867 161.388 100.768 162.156 102.048C162.924 103.285 163.479 104.8 163.82 106.592C164.161 108.341 164.332 110.304 164.332 112.48V132ZM188.013 132.64C185.623 132.64 183.405 132.192 181.357 131.296C179.309 130.357 177.538 129.099 176.045 127.52C174.551 125.899 173.378 124.043 172.525 121.952C171.714 119.861 171.309 117.621 171.309 115.232C171.309 112.117 172.013 109.259 173.421 106.656C174.871 104.053 176.855 101.984 179.373 100.448C181.89 98.8693 184.749 98.08 187.949 98.08C191.234 98.08 194.093 98.8693 196.525 100.448C198.999 102.027 200.941 104.117 202.349 106.72C203.757 109.28 204.461 112.096 204.461 115.168C204.461 115.509 204.461 115.851 204.461 116.192C204.461 116.491 204.439 116.725 204.397 116.896H175.853C176.066 119.285 176.727 121.419 177.837 123.296C178.989 125.131 180.461 126.603 182.253 127.712C184.087 128.779 186.071 129.312 188.205 129.312C190.381 129.312 192.429 128.757 194.349 127.648C196.311 126.539 197.677 125.088 198.445 123.296L202.221 124.32C201.538 125.899 200.493 127.328 199.085 128.608C197.677 129.888 196.013 130.891 194.093 131.616C192.215 132.299 190.189 132.64 188.013 132.64ZM175.725 113.76H200.365C200.194 111.328 199.533 109.195 198.381 107.36C197.271 105.525 195.799 104.096 193.965 103.072C192.173 102.005 190.189 101.472 188.013 101.472C185.837 101.472 183.853 102.005 182.061 103.072C180.269 104.096 178.797 105.547 177.645 107.424C176.535 109.259 175.895 111.371 175.725 113.76ZM225.575 132.64C223.186 132.64 220.967 132.192 218.919 131.296C216.871 130.357 215.1 129.099 213.607 127.52C212.114 125.899 210.94 124.043 210.087 121.952C209.276 119.861 208.871 117.621 208.871 115.232C208.871 112.117 209.575 109.259 210.983 106.656C212.434 104.053 214.418 101.984 216.935 100.448C219.452 98.8693 222.311 98.08 225.511 98.08C228.796 98.08 231.655 98.8693 234.087 100.448C236.562 102.027 238.503 104.117 239.911 106.72C241.319 109.28 242.023 112.096 242.023 115.168C242.023 115.509 242.023 115.851 242.023 116.192C242.023 116.491 242.002 116.725 241.959 116.896H213.415C213.628 119.285 214.29 121.419 215.399 123.296C216.551 125.131 218.023 126.603 219.815 127.712C221.65 128.779 223.634 129.312 225.767 129.312C227.943 129.312 229.991 128.757 231.911 127.648C233.874 126.539 235.239 125.088 236.007 123.296L239.783 124.32C239.1 125.899 238.055 127.328 236.647 128.608C235.239 129.888 233.575 130.891 231.655 131.616C229.778 132.299 227.751 132.64 225.575 132.64ZM213.287 113.76H237.927C237.756 111.328 237.095 109.195 235.943 107.36C234.834 105.525 233.362 104.096 231.527 103.072C229.735 102.005 227.751 101.472 225.575 101.472C223.399 101.472 221.415 102.005 219.623 103.072C217.831 104.096 216.359 105.547 215.207 107.424C214.098 109.259 213.458 111.371 213.287 113.76ZM265.378 102.496C262.476 102.581 259.916 103.392 257.698 104.928C255.522 106.464 253.986 108.576 253.09 111.264V132H248.738V98.656H252.834V106.656C253.986 104.309 255.5 102.411 257.378 100.96C259.298 99.5093 261.324 98.6987 263.458 98.528C263.884 98.4853 264.247 98.464 264.546 98.464C264.887 98.464 265.164 98.4853 265.378 98.528V102.496ZM271.175 132V98.656H275.527V132H271.175ZM271.175 91.68V85.28H275.527V91.68H271.175ZM313.145 132H308.793V113.376C308.793 109.451 308.217 106.592 307.065 104.8C305.913 102.965 304.099 102.048 301.625 102.048C299.918 102.048 298.233 102.475 296.569 103.328C294.905 104.139 293.433 105.269 292.153 106.72C290.915 108.128 290.019 109.749 289.465 111.584V132H285.113V98.656H289.081V106.208C289.977 104.587 291.15 103.179 292.601 101.984C294.051 100.747 295.694 99.7867 297.529 99.104C299.363 98.4213 301.262 98.08 303.225 98.08C305.059 98.08 306.617 98.4213 307.897 99.104C309.177 99.7867 310.201 100.768 310.969 102.048C311.737 103.285 312.291 104.8 312.632 106.592C312.974 108.341 313.145 110.304 313.145 112.48V132ZM335.801 132.448C333.54 132.448 331.449 131.979 329.529 131.04C327.609 130.101 325.945 128.843 324.537 127.264C323.172 125.643 322.105 123.808 321.337 121.76C320.569 119.712 320.185 117.6 320.185 115.424C320.185 113.077 320.548 110.88 321.273 108.832C322.041 106.741 323.108 104.885 324.473 103.264C325.881 101.643 327.524 100.384 329.401 99.488C331.278 98.5493 333.369 98.08 335.673 98.08C338.532 98.08 341.006 98.8053 343.097 100.256C345.23 101.707 347.022 103.499 348.473 105.632V98.656H352.377V132.128C352.377 135.2 351.63 137.781 350.137 139.872C348.686 142.005 346.702 143.605 344.185 144.672C341.71 145.739 339.001 146.272 336.057 146.272C332.26 146.272 329.188 145.589 326.841 144.224C324.494 142.859 322.574 141.024 321.081 138.72L323.769 136.608C325.092 138.699 326.841 140.256 329.017 141.28C331.236 142.304 333.582 142.816 336.057 142.816C338.233 142.816 340.217 142.411 342.009 141.6C343.844 140.832 345.294 139.659 346.361 138.08C347.47 136.501 348.025 134.517 348.025 132.128V125.536C346.745 127.627 344.996 129.312 342.777 130.592C340.558 131.829 338.233 132.448 335.801 132.448ZM337.017 128.8C338.34 128.8 339.598 128.565 340.793 128.096C342.03 127.627 343.161 127.008 344.185 126.24C345.209 125.429 346.062 124.533 346.745 123.552C347.428 122.571 347.854 121.568 348.025 120.544V110.24C347.385 108.619 346.468 107.189 345.273 105.952C344.078 104.672 342.713 103.691 341.177 103.008C339.684 102.283 338.126 101.92 336.505 101.92C334.628 101.92 332.942 102.325 331.449 103.136C329.998 103.904 328.761 104.949 327.737 106.272C326.756 107.552 325.988 109.003 325.433 110.624C324.878 112.245 324.601 113.867 324.601 115.488C324.601 117.28 324.921 118.987 325.561 120.608C326.201 122.187 327.076 123.616 328.185 124.896C329.337 126.133 330.66 127.093 332.153 127.776C333.689 128.459 335.31 128.8 337.017 128.8Z" fill="black"/>
<path d="M32 179.248C31.5733 178.779 30.9547 178.288 30.144 177.776C29.3333 177.221 28.3733 176.709 27.264 176.24C26.1547 175.771 24.96 175.387 23.68 175.088C22.4 174.789 21.0773 174.64 19.712 174.64C16.7253 174.64 14.5067 175.195 13.056 176.304C11.6053 177.413 10.88 178.949 10.88 180.912C10.88 182.363 11.2853 183.515 12.096 184.368C12.9067 185.179 14.144 185.861 15.808 186.416C17.472 186.971 19.5627 187.568 22.08 188.208C25.152 188.933 27.8187 189.808 30.08 190.832C32.3413 191.813 34.0693 193.136 35.264 194.8C36.4587 196.464 37.056 198.661 37.056 201.392C37.056 203.696 36.6293 205.68 35.776 207.344C34.9227 209.008 33.728 210.373 32.192 211.44C30.656 212.464 28.8853 213.232 26.88 213.744C24.8747 214.213 22.72 214.448 20.416 214.448C18.1547 214.448 15.8933 214.213 13.632 213.744C11.4133 213.275 9.28 212.592 7.232 211.696C5.22667 210.757 3.37067 209.627 1.664 208.304L4.928 202.16C5.48267 202.715 6.272 203.333 7.296 204.016C8.36267 204.656 9.57867 205.275 10.944 205.872C12.352 206.469 13.8667 206.981 15.488 207.408C17.152 207.792 18.8373 207.984 20.544 207.984C23.4027 207.984 25.5787 207.493 27.072 206.512C28.608 205.488 29.376 204.037 29.376 202.16C29.376 200.624 28.8853 199.408 27.904 198.512C26.9227 197.573 25.4933 196.784 23.616 196.144C21.7387 195.504 19.4987 194.864 16.896 194.224C13.9093 193.413 11.4133 192.539 9.408 191.6C7.40267 190.619 5.888 189.381 4.864 187.888C3.88267 186.352 3.392 184.411 3.392 182.064C3.392 179.077 4.11733 176.56 5.568 174.512C7.01867 172.421 8.98133 170.864 11.456 169.84C13.9733 168.773 16.7893 168.24 19.904 168.24C21.952 168.24 23.8933 168.475 25.728 168.944C27.5627 169.371 29.2693 169.968 30.848 170.736C32.4693 171.504 33.9413 172.379 35.264 173.36L32 179.248ZM78.037 214.64C75.4343 214.64 73.0663 214.192 70.933 213.296C68.8423 212.357 67.029 211.099 65.493 209.52C63.957 207.899 62.7623 206.064 61.909 204.016C61.0983 201.925 60.693 199.707 60.693 197.36C60.693 194.203 61.4183 191.323 62.869 188.72C64.3197 186.075 66.3463 183.963 68.949 182.384C71.5517 180.763 74.6023 179.952 78.101 179.952C81.5997 179.952 84.6077 180.763 87.125 182.384C89.685 183.963 91.669 186.053 93.077 188.656C94.485 191.259 95.189 194.053 95.189 197.04C95.189 197.552 95.1677 198.043 95.125 198.512C95.0823 198.939 95.0397 199.301 94.997 199.6H68.181C68.309 201.563 68.8423 203.291 69.781 204.784C70.7623 206.235 71.9997 207.387 73.493 208.24C74.9863 209.051 76.5863 209.456 78.293 209.456C80.1703 209.456 81.941 208.987 83.605 208.048C85.3117 207.109 86.4637 205.872 87.061 204.336L93.077 206.064C92.3517 207.685 91.2423 209.157 89.749 210.48C88.2983 211.76 86.5703 212.784 84.565 213.552C82.5597 214.277 80.3837 214.64 78.037 214.64ZM67.989 194.928H88.213C88.085 193.008 87.5303 191.323 86.549 189.872C85.6103 188.379 84.3943 187.227 82.901 186.416C81.4503 185.563 79.829 185.136 78.037 185.136C76.2877 185.136 74.6663 185.563 73.173 186.416C71.7223 187.227 70.5277 188.379 69.589 189.872C68.6503 191.323 68.117 193.008 67.989 194.928ZM139.268 186.608C136.537 186.651 134.105 187.269 131.972 188.464C129.881 189.659 128.388 191.344 127.492 193.52V214H120.452V180.528H126.98V188.016C128.132 185.712 129.646 183.877 131.524 182.512C133.401 181.104 135.385 180.336 137.476 180.208C137.902 180.208 138.244 180.208 138.5 180.208C138.798 180.208 139.054 180.229 139.268 180.272V186.608ZM173.253 214L160.517 180.528H167.813L177.349 207.472L186.885 180.528H193.669L180.933 214H173.253ZM218.242 214V180.528H225.282V214H218.242ZM218.242 175.024V167.28H225.282V175.024H218.242ZM268.43 214.64C265.827 214.64 263.459 214.192 261.326 213.296C259.235 212.357 257.422 211.077 255.886 209.456C254.35 207.835 253.155 205.979 252.302 203.888C251.491 201.797 251.086 199.579 251.086 197.232C251.086 194.075 251.79 191.195 253.198 188.592C254.648 185.989 256.654 183.899 259.214 182.32C261.816 180.741 264.888 179.952 268.43 179.952C271.843 179.952 274.808 180.72 277.326 182.256C279.886 183.749 281.763 185.755 282.958 188.272L276.11 190.448C275.342 189.04 274.254 187.952 272.846 187.184C271.48 186.373 269.966 185.968 268.302 185.968C266.424 185.968 264.718 186.459 263.182 187.44C261.688 188.379 260.494 189.701 259.598 191.408C258.744 193.072 258.318 195.013 258.318 197.232C258.318 199.365 258.766 201.307 259.662 203.056C260.558 204.763 261.752 206.128 263.246 207.152C264.782 208.133 266.488 208.624 268.366 208.624C269.518 208.624 270.627 208.432 271.694 208.048C272.803 207.621 273.763 207.067 274.574 206.384C275.384 205.659 275.96 204.869 276.302 204.016L283.214 206.064C282.488 207.728 281.4 209.2 279.95 210.48C278.542 211.76 276.856 212.784 274.894 213.552C272.974 214.277 270.819 214.64 268.43 214.64ZM323.387 214.64C320.784 214.64 318.416 214.192 316.283 213.296C314.192 212.357 312.379 211.099 310.843 209.52C309.307 207.899 308.112 206.064 307.259 204.016C306.448 201.925 306.043 199.707 306.043 197.36C306.043 194.203 306.768 191.323 308.219 188.72C309.67 186.075 311.696 183.963 314.299 182.384C316.902 180.763 319.952 179.952 323.451 179.952C326.95 179.952 329.958 180.763 332.475 182.384C335.035 183.963 337.019 186.053 338.427 188.656C339.835 191.259 340.539 194.053 340.539 197.04C340.539 197.552 340.518 198.043 340.475 198.512C340.432 198.939 340.39 199.301 340.347 199.6H313.531C313.659 201.563 314.192 203.291 315.131 204.784C316.112 206.235 317.35 207.387 318.843 208.24C320.336 209.051 321.936 209.456 323.643 209.456C325.52 209.456 327.291 208.987 328.955 208.048C330.662 207.109 331.814 205.872 332.411 204.336L338.427 206.064C337.702 207.685 336.592 209.157 335.099 210.48C333.648 211.76 331.92 212.784 329.915 213.552C327.91 214.277 325.734 214.64 323.387 214.64ZM313.339 194.928H333.563C333.435 193.008 332.88 191.323 331.899 189.872C330.96 188.379 329.744 187.227 328.251 186.416C326.8 185.563 325.179 185.136 323.387 185.136C321.638 185.136 320.016 185.563 318.523 186.416C317.072 187.227 315.878 188.379 314.939 189.872C314 191.323 313.467 193.008 313.339 194.928ZM377.706 214.64C374.89 214.64 372.223 214.192 369.706 213.296C367.188 212.357 365.034 210.971 363.242 209.136L365.866 204.4C367.786 206.107 369.706 207.344 371.626 208.112C373.588 208.88 375.53 209.264 377.45 209.264C379.412 209.264 381.012 208.901 382.25 208.176C383.487 207.408 384.106 206.299 384.106 204.848C384.106 203.781 383.786 202.992 383.146 202.48C382.506 201.968 381.567 201.52 380.33 201.136C379.135 200.752 377.684 200.325 375.978 199.856C373.588 199.131 371.583 198.384 369.962 197.616C368.34 196.805 367.124 195.824 366.314 194.672C365.503 193.52 365.098 192.048 365.098 190.256C365.098 188.08 365.652 186.224 366.762 184.688C367.871 183.152 369.407 181.979 371.37 181.168C373.375 180.357 375.679 179.952 378.282 179.952C380.714 179.952 382.954 180.336 385.002 181.104C387.092 181.829 388.927 182.981 390.506 184.56L387.498 189.232C386.004 187.867 384.468 186.864 382.89 186.224C381.354 185.584 379.69 185.264 377.898 185.264C376.874 185.264 375.892 185.392 374.954 185.648C374.015 185.861 373.226 186.288 372.586 186.928C371.988 187.525 371.69 188.379 371.69 189.488C371.69 190.384 371.946 191.109 372.458 191.664C372.97 192.219 373.738 192.688 374.762 193.072C375.786 193.456 377.044 193.883 378.538 194.352C381.14 195.12 383.359 195.888 385.194 196.656C387.028 197.381 388.436 198.341 389.418 199.536C390.442 200.688 390.954 202.288 390.954 204.336C390.954 207.579 389.738 210.117 387.306 211.952C384.916 213.744 381.716 214.64 377.706 214.64Z" fill="#FF3C00"/>
<rect x="4" y="151" width="611" height="5" rx="2.5" fill="url(#paint0_linear_528_306)"/>
<path d="M578.509 39.75L522.5 149.695L466.491 39.75L578.509 39.75Z" stroke="#FF3C00" stroke-width="3"/>
<path d="M521.533 152H523.533V261H521.533V152Z" fill="black"/>
<circle cx="522.5" cy="152.5" r="89.5" stroke="#FF3C00" stroke-width="4"/>
<defs>
<linearGradient id="paint0_linear_528_306" x1="4" y1="146.001" x2="625.5" y2="156.002" gradientUnits="userSpaceOnUse">
<stop stop-color="#FF3C00"/>
<stop offset="1"/>
</linearGradient>
</defs>
</svg>
