<svg width="585" height="324" viewBox="0 0 585 324" fill="none" xmlns="http://www.w3.org/2000/svg">
<rect y="163" width="584" height="5" fill="#FF3C00"/>
<circle cx="281" cy="162" r="158.5" stroke="black" stroke-width="7"/>
<path d="M182.81 95.1H188.12L214.67 159H208.01L199.73 139.02H171.02L162.83 159H156.08L182.81 95.1ZM198.29 134.07L185.42 102.48L172.37 134.07H198.29ZM245.52 159.9C241.86 159.9 238.47 158.97 235.35 157.11C232.23 155.19 229.8 152.79 228.06 149.91V159H222.57V93.3H228.69V121.92C230.79 118.74 233.31 116.19 236.25 114.27C239.19 112.29 242.61 111.3 246.51 111.3C249.81 111.3 252.75 111.99 255.33 113.37C257.97 114.75 260.22 116.61 262.08 118.95C263.94 121.23 265.35 123.84 266.31 126.78C267.27 129.66 267.75 132.63 267.75 135.69C267.75 138.99 267.18 142.08 266.04 144.96C264.96 147.84 263.4 150.42 261.36 152.7C259.32 154.92 256.95 156.69 254.25 158.01C251.61 159.27 248.7 159.9 245.52 159.9ZM244.08 154.5C246.6 154.5 248.94 153.99 251.1 152.97C253.26 151.95 255.12 150.54 256.68 148.74C258.24 146.94 259.44 144.93 260.28 142.71C261.12 140.43 261.54 138.09 261.54 135.69C261.54 132.39 260.82 129.3 259.38 126.42C258 123.48 256.05 121.14 253.53 119.4C251.07 117.6 248.16 116.7 244.8 116.7C242.4 116.7 240.15 117.24 238.05 118.32C236.01 119.4 234.18 120.84 232.56 122.64C231 124.38 229.71 126.3 228.69 128.4V142.98C228.93 144.6 229.56 146.13 230.58 147.57C231.6 148.95 232.86 150.15 234.36 151.17C235.92 152.19 237.54 153 239.22 153.6C240.9 154.2 242.52 154.5 244.08 154.5ZM298.097 159.9C294.737 159.9 291.617 159.27 288.737 158.01C285.917 156.69 283.457 154.92 281.357 152.7C279.317 150.42 277.727 147.84 276.587 144.96C275.447 142.02 274.877 138.93 274.877 135.69C274.877 132.33 275.447 129.21 276.587 126.33C277.727 123.39 279.347 120.81 281.447 118.59C283.547 116.31 286.007 114.54 288.827 113.28C291.707 111.96 294.827 111.3 298.187 111.3C301.547 111.3 304.637 111.96 307.457 113.28C310.277 114.54 312.737 116.31 314.837 118.59C316.937 120.81 318.557 123.39 319.697 126.33C320.837 129.21 321.407 132.33 321.407 135.69C321.407 138.93 320.837 142.02 319.697 144.96C318.557 147.84 316.937 150.42 314.837 152.7C312.797 154.92 310.337 156.69 307.457 158.01C304.637 159.27 301.517 159.9 298.097 159.9ZM281.087 135.78C281.087 139.26 281.837 142.44 283.337 145.32C284.897 148.14 286.967 150.39 289.547 152.07C292.127 153.69 294.977 154.5 298.097 154.5C301.217 154.5 304.067 153.66 306.647 151.98C309.227 150.3 311.297 148.02 312.857 145.14C314.417 142.2 315.197 139.02 315.197 135.6C315.197 132.12 314.417 128.94 312.857 126.06C311.297 123.18 309.227 120.9 306.647 119.22C304.067 117.54 301.217 116.7 298.097 116.7C294.977 116.7 292.127 117.57 289.547 119.31C287.027 121.05 284.987 123.36 283.427 126.24C281.867 129.06 281.087 132.24 281.087 135.78ZM331.193 139.65V112.11H337.313V138.57C337.313 143.91 338.213 147.9 340.013 150.54C341.873 153.18 344.603 154.5 348.203 154.5C350.603 154.5 352.913 153.99 355.133 152.97C357.413 151.89 359.423 150.39 361.163 148.47C362.903 146.49 364.223 144.21 365.123 141.63V112.11H371.243V151.62C371.243 152.46 371.423 153.09 371.783 153.51C372.143 153.87 372.683 154.08 373.403 154.14V159C372.683 159.06 372.113 159.09 371.693 159.09C371.273 159.15 370.883 159.18 370.523 159.18C369.323 159.06 368.273 158.58 367.373 157.74C366.533 156.9 366.083 155.88 366.023 154.68L365.843 148.38C363.803 151.98 361.013 154.8 357.473 156.84C353.993 158.88 350.213 159.9 346.133 159.9C341.213 159.9 337.493 158.19 334.973 154.77C332.453 151.35 331.193 146.31 331.193 139.65ZM407.58 156.75C407.1 156.93 406.35 157.26 405.33 157.74C404.31 158.22 403.08 158.64 401.64 159C400.2 159.36 398.64 159.54 396.96 159.54C395.22 159.54 393.57 159.21 392.01 158.55C390.51 157.89 389.31 156.9 388.41 155.58C387.51 154.2 387.06 152.52 387.06 150.54V116.97H380.58V112.11H387.06V96.27H393.18V112.11H403.98V116.97H393.18V148.83C393.3 150.51 393.9 151.77 394.98 152.61C396.12 153.45 397.41 153.87 398.85 153.87C400.53 153.87 402.06 153.6 403.44 153.06C404.82 152.46 405.66 152.04 405.96 151.8L407.58 156.75Z" fill="black"/>
<path d="M190.02 238.45C184.98 238.45 180.72 237.55 177.24 235.75C173.76 233.95 171 231.55 168.96 228.55C166.92 225.49 165.42 222.04 164.46 218.2C163.56 214.36 163.11 210.4 163.11 206.32V174.1H169.32V206.32C169.32 209.62 169.65 212.86 170.31 216.04C171.03 219.22 172.17 222.07 173.73 224.59C175.29 227.11 177.39 229.12 180.03 230.62C182.67 232.06 185.97 232.78 189.93 232.78C194.01 232.78 197.37 232.03 200.01 230.53C202.71 228.97 204.81 226.93 206.31 224.41C207.87 221.89 208.98 219.07 209.64 215.95C210.3 212.77 210.63 209.56 210.63 206.32V174.1H216.93V206.32C216.93 210.58 216.45 214.66 215.49 218.56C214.53 222.46 212.97 225.88 210.81 228.82C208.71 231.76 205.95 234.1 202.53 235.84C199.11 237.58 194.94 238.45 190.02 238.45ZM269.299 186.07C268.399 185.05 267.349 184.15 266.149 183.37C264.949 182.53 263.599 181.81 262.099 181.21C260.599 180.61 258.979 180.13 257.239 179.77C255.559 179.41 253.759 179.23 251.839 179.23C246.259 179.23 242.149 180.31 239.509 182.47C236.929 184.57 235.639 187.45 235.639 191.11C235.639 193.63 236.239 195.61 237.439 197.05C238.699 198.49 240.649 199.66 243.289 200.56C245.929 201.46 249.289 202.39 253.369 203.35C257.929 204.31 261.859 205.45 265.159 206.77C268.459 208.09 271.009 209.89 272.809 212.17C274.609 214.39 275.509 217.42 275.509 221.26C275.509 224.2 274.939 226.75 273.799 228.91C272.659 231.07 271.069 232.87 269.029 234.31C266.989 235.75 264.559 236.83 261.739 237.55C258.919 238.21 255.829 238.54 252.469 238.54C249.169 238.54 245.989 238.21 242.929 237.55C239.929 236.83 237.079 235.81 234.379 234.49C231.679 233.11 229.159 231.37 226.819 229.27L229.969 224.14C231.109 225.34 232.459 226.48 234.019 227.56C235.639 228.58 237.409 229.51 239.329 230.35C241.309 231.19 243.409 231.85 245.629 232.33C247.909 232.75 250.249 232.96 252.649 232.96C257.749 232.96 261.709 232.03 264.529 230.17C267.409 228.31 268.849 225.55 268.849 221.89C268.849 219.25 268.129 217.15 266.689 215.59C265.249 213.97 263.089 212.65 260.209 211.63C257.329 210.61 253.789 209.62 249.589 208.66C245.149 207.64 241.399 206.5 238.339 205.24C235.279 203.98 232.969 202.33 231.409 200.29C229.909 198.19 229.159 195.43 229.159 192.01C229.159 188.05 230.119 184.72 232.039 182.02C234.019 179.26 236.719 177.19 240.139 175.81C243.559 174.37 247.489 173.65 251.929 173.65C254.749 173.65 257.359 173.95 259.759 174.55C262.219 175.09 264.469 175.9 266.509 176.98C268.609 178.06 270.559 179.41 272.359 181.03L269.299 186.07Z" fill="black"/>
<path d="M182.81 95.1H188.12L214.67 159H208.01L199.73 139.02H171.02L162.83 159H156.08L182.81 95.1ZM198.29 134.07L185.42 102.48L172.37 134.07H198.29ZM245.52 159.9C241.86 159.9 238.47 158.97 235.35 157.11C232.23 155.19 229.8 152.79 228.06 149.91V159H222.57V93.3H228.69V121.92C230.79 118.74 233.31 116.19 236.25 114.27C239.19 112.29 242.61 111.3 246.51 111.3C249.81 111.3 252.75 111.99 255.33 113.37C257.97 114.75 260.22 116.61 262.08 118.95C263.94 121.23 265.35 123.84 266.31 126.78C267.27 129.66 267.75 132.63 267.75 135.69C267.75 138.99 267.18 142.08 266.04 144.96C264.96 147.84 263.4 150.42 261.36 152.7C259.32 154.92 256.95 156.69 254.25 158.01C251.61 159.27 248.7 159.9 245.52 159.9ZM244.08 154.5C246.6 154.5 248.94 153.99 251.1 152.97C253.26 151.95 255.12 150.54 256.68 148.74C258.24 146.94 259.44 144.93 260.28 142.71C261.12 140.43 261.54 138.09 261.54 135.69C261.54 132.39 260.82 129.3 259.38 126.42C258 123.48 256.05 121.14 253.53 119.4C251.07 117.6 248.16 116.7 244.8 116.7C242.4 116.7 240.15 117.24 238.05 118.32C236.01 119.4 234.18 120.84 232.56 122.64C231 124.38 229.71 126.3 228.69 128.4V142.98C228.93 144.6 229.56 146.13 230.58 147.57C231.6 148.95 232.86 150.15 234.36 151.17C235.92 152.19 237.54 153 239.22 153.6C240.9 154.2 242.52 154.5 244.08 154.5ZM298.097 159.9C294.737 159.9 291.617 159.27 288.737 158.01C285.917 156.69 283.457 154.92 281.357 152.7C279.317 150.42 277.727 147.84 276.587 144.96C275.447 142.02 274.877 138.93 274.877 135.69C274.877 132.33 275.447 129.21 276.587 126.33C277.727 123.39 279.347 120.81 281.447 118.59C283.547 116.31 286.007 114.54 288.827 113.28C291.707 111.96 294.827 111.3 298.187 111.3C301.547 111.3 304.637 111.96 307.457 113.28C310.277 114.54 312.737 116.31 314.837 118.59C316.937 120.81 318.557 123.39 319.697 126.33C320.837 129.21 321.407 132.33 321.407 135.69C321.407 138.93 320.837 142.02 319.697 144.96C318.557 147.84 316.937 150.42 314.837 152.7C312.797 154.92 310.337 156.69 307.457 158.01C304.637 159.27 301.517 159.9 298.097 159.9ZM281.087 135.78C281.087 139.26 281.837 142.44 283.337 145.32C284.897 148.14 286.967 150.39 289.547 152.07C292.127 153.69 294.977 154.5 298.097 154.5C301.217 154.5 304.067 153.66 306.647 151.98C309.227 150.3 311.297 148.02 312.857 145.14C314.417 142.2 315.197 139.02 315.197 135.6C315.197 132.12 314.417 128.94 312.857 126.06C311.297 123.18 309.227 120.9 306.647 119.22C304.067 117.54 301.217 116.7 298.097 116.7C294.977 116.7 292.127 117.57 289.547 119.31C287.027 121.05 284.987 123.36 283.427 126.24C281.867 129.06 281.087 132.24 281.087 135.78ZM331.193 139.65V112.11H337.313V138.57C337.313 143.91 338.213 147.9 340.013 150.54C341.873 153.18 344.603 154.5 348.203 154.5C350.603 154.5 352.913 153.99 355.133 152.97C357.413 151.89 359.423 150.39 361.163 148.47C362.903 146.49 364.223 144.21 365.123 141.63V112.11H371.243V151.62C371.243 152.46 371.423 153.09 371.783 153.51C372.143 153.87 372.683 154.08 373.403 154.14V159C372.683 159.06 372.113 159.09 371.693 159.09C371.273 159.15 370.883 159.18 370.523 159.18C369.323 159.06 368.273 158.58 367.373 157.74C366.533 156.9 366.083 155.88 366.023 154.68L365.843 148.38C363.803 151.98 361.013 154.8 357.473 156.84C353.993 158.88 350.213 159.9 346.133 159.9C341.213 159.9 337.493 158.19 334.973 154.77C332.453 151.35 331.193 146.31 331.193 139.65ZM407.58 156.75C407.1 156.93 406.35 157.26 405.33 157.74C404.31 158.22 403.08 158.64 401.64 159C400.2 159.36 398.64 159.54 396.96 159.54C395.22 159.54 393.57 159.21 392.01 158.55C390.51 157.89 389.31 156.9 388.41 155.58C387.51 154.2 387.06 152.52 387.06 150.54V116.97H380.58V112.11H387.06V96.27H393.18V112.11H403.98V116.97H393.18V148.83C393.3 150.51 393.9 151.77 394.98 152.61C396.12 153.45 397.41 153.87 398.85 153.87C400.53 153.87 402.06 153.6 403.44 153.06C404.82 152.46 405.66 152.04 405.96 151.8L407.58 156.75Z" fill="black"/>
<path d="M190.02 238.45C184.98 238.45 180.72 237.55 177.24 235.75C173.76 233.95 171 231.55 168.96 228.55C166.92 225.49 165.42 222.04 164.46 218.2C163.56 214.36 163.11 210.4 163.11 206.32V174.1H169.32V206.32C169.32 209.62 169.65 212.86 170.31 216.04C171.03 219.22 172.17 222.07 173.73 224.59C175.29 227.11 177.39 229.12 180.03 230.62C182.67 232.06 185.97 232.78 189.93 232.78C194.01 232.78 197.37 232.03 200.01 230.53C202.71 228.97 204.81 226.93 206.31 224.41C207.87 221.89 208.98 219.07 209.64 215.95C210.3 212.77 210.63 209.56 210.63 206.32V174.1H216.93V206.32C216.93 210.58 216.45 214.66 215.49 218.56C214.53 222.46 212.97 225.88 210.81 228.82C208.71 231.76 205.95 234.1 202.53 235.84C199.11 237.58 194.94 238.45 190.02 238.45ZM269.299 186.07C268.399 185.05 267.349 184.15 266.149 183.37C264.949 182.53 263.599 181.81 262.099 181.21C260.599 180.61 258.979 180.13 257.239 179.77C255.559 179.41 253.759 179.23 251.839 179.23C246.259 179.23 242.149 180.31 239.509 182.47C236.929 184.57 235.639 187.45 235.639 191.11C235.639 193.63 236.239 195.61 237.439 197.05C238.699 198.49 240.649 199.66 243.289 200.56C245.929 201.46 249.289 202.39 253.369 203.35C257.929 204.31 261.859 205.45 265.159 206.77C268.459 208.09 271.009 209.89 272.809 212.17C274.609 214.39 275.509 217.42 275.509 221.26C275.509 224.2 274.939 226.75 273.799 228.91C272.659 231.07 271.069 232.87 269.029 234.31C266.989 235.75 264.559 236.83 261.739 237.55C258.919 238.21 255.829 238.54 252.469 238.54C249.169 238.54 245.989 238.21 242.929 237.55C239.929 236.83 237.079 235.81 234.379 234.49C231.679 233.11 229.159 231.37 226.819 229.27L229.969 224.14C231.109 225.34 232.459 226.48 234.019 227.56C235.639 228.58 237.409 229.51 239.329 230.35C241.309 231.19 243.409 231.85 245.629 232.33C247.909 232.75 250.249 232.96 252.649 232.96C257.749 232.96 261.709 232.03 264.529 230.17C267.409 228.31 268.849 225.55 268.849 221.89C268.849 219.25 268.129 217.15 266.689 215.59C265.249 213.97 263.089 212.65 260.209 211.63C257.329 210.61 253.789 209.62 249.589 208.66C245.149 207.64 241.399 206.5 238.339 205.24C235.279 203.98 232.969 202.33 231.409 200.29C229.909 198.19 229.159 195.43 229.159 192.01C229.159 188.05 230.119 184.72 232.039 182.02C234.019 179.26 236.719 177.19 240.139 175.81C243.559 174.37 247.489 173.65 251.929 173.65C254.749 173.65 257.359 173.95 259.759 174.55C262.219 175.09 264.469 175.9 266.509 176.98C268.609 178.06 270.559 179.41 272.359 181.03L269.299 186.07Z" fill="black"/>
<rect x="584" y="48" width="1" height="254" fill="black" fill-opacity="0.52"/>
</svg>
